Coordinates
version=1
nRows=20
nColumns=34
inDegrees=yes

Units are S.I. units (second, meters, Newtons, ...)
If the header above contains a line with 'inDegrees', this indicates whether rotational values are in degrees (yes) or radians (no).

endheader
time	pelvis_tilt	pelvis_list	pelvis_rotation	pelvis_tx	pelvis_ty	pelvis_tz	hip_flexion_r	hip_adduction_r	hip_rotation_r	knee_angle_r	ankle_angle_r	subtalar_angle_r	mtp_angle_r	hip_flexion_l	hip_adduction_l	hip_rotation_l	knee_angle_l	ankle_angle_l	subtalar_angle_l	mtp_angle_l	lumbar_extension	lumbar_bending	lumbar_rotation	arm_flex_r	arm_add_r	arm_rot_r	elbow_flex_r	pro_sup_r	arm_flex_l	arm_add_l	arm_rot_l	elbow_flex_l	pro_sup_l
      2.73333330	      2.62788982	    -13.23005415	    -64.38228166	      1.51167154	      1.01953828	      5.45671946	     24.70366497	     -3.20828819	      5.28516456	     21.36680709	     -2.70730412	      3.83317360	      0.00000000	     24.41724761	      5.67797926	     -0.32124988	     18.52387153	    -13.76013098	    -13.43073866	      0.00000000	    -22.31644232	      0.59321013	     -4.70135776	      1.59740081	     -4.49620574	     -9.40799915	     48.88270963	    119.74817918	     24.08876418	     -7.15706708	      9.89138121	     65.17757011	    119.74817918
      2.75000000	      2.61987348	    -13.42844939	    -64.01389809	      1.51602449	      1.02061115	      5.46017951	     23.48232718	     -3.35210750	      7.11413226	     20.32701706	     -1.26465279	      4.55889154	      0.00000000	     24.69367238	      5.80473385	     -0.19069622	     20.05950103	    -13.13476230	    -13.30423539	      0.00000000	    -22.20987765	      1.35901522	     -4.66651007	      0.36667967	     -4.79163119	     -9.71909374	     50.06303209	    119.74817918	     23.44651580	     -6.38719559	     10.41199833	     67.37987141	    119.74817918
      2.76666670	      2.16465047	    -14.44462758	    -63.53487165	      1.52016338	      1.02269002	      5.46408833	     21.45732015	     -2.76650143	      8.51331819	     19.23079898	     -0.26671858	      5.16930426	      0.00000000	     24.54312665	      4.91695100	     -0.97966378	     22.06620210	    -10.68087590	    -11.33914282	      0.00000000	    -22.81466933	      2.86312798	     -4.74230670	     -1.26965476	     -5.13004844	     -9.63537203	     51.92198849	    119.48138573	     22.58398745	     -6.26721964	     11.02426811	     69.96591546	    119.74817918
      2.78333330	      1.91124340	    -14.81959463	    -62.96908236	      1.52362940	      1.02393563	      5.46719808	     20.67413011	     -2.57715158	     10.31800014	     19.28607264	      0.58402677	      5.79434049	      0.00000000	     24.74324935	      4.77620405	     -0.35570218	     23.45241524	    -10.08936392	    -11.22908462	      0.00000000	    -22.87349439	      3.85661760	     -4.77727739	     -2.57599975	     -5.34050299	     -9.22237531	     52.92406722	    119.36136212	     21.68774915	     -6.81320984	     12.56272751	     72.98136076	    119.74817918
      2.80000000	      0.90375154	    -15.59824839	    -62.08402308	      1.52738529	      1.02553839	      5.47043708	     19.88985057	     -1.58407756	     10.82832509	     19.62588894	      0.13800567	      5.19943139	      0.00000000	     25.36583334	      4.06579263	      1.37411223	     25.69146271	     -9.31884457	    -11.33317435	      0.00000000	    -22.86180972	      5.78611971	     -5.16125854	     -3.97002661	     -5.64714106	     -8.35266930	     53.73870906	    118.70948732	     20.49086529	     -7.25026126	     13.41300631	     76.48533662	    119.74817918
      2.81666670	     -0.33094005	    -16.19053731	    -61.31487842	      1.52954226	      1.02673798	      5.47079501	     20.41707505	     -0.48067330	      9.91498115	     21.10762758	     -1.48882411	      5.11697687	      0.00000000	     26.27310671	      3.47586919	      3.77544789	     27.35038483	     -9.80244811	    -12.89919089	      0.00000000	    -23.11509768	      7.61665140	     -5.58154670	     -4.03266148	     -6.01992897	     -7.09988657	     53.59014694	    117.86755157	     20.35114266	     -7.72499914	     14.44915227	     79.19639253	    119.74817918
      2.83333330	     -1.64674333	    -16.68024620	    -61.56653074	      1.52909115	      1.02843097	      5.46979775	     21.04871430	      0.71774688	      8.58161174	     21.76747245	     -3.55142551	      6.12645765	      0.00000000	     27.06662029	      2.25262985	      4.75737769	     28.29365664	    -10.45812768	    -13.57019158	      0.00000000	    -23.82670997	      9.16054465	     -4.64995043	     -3.72303444	     -6.98599721	     -5.52877354	     53.50212014	    117.35994428	     20.71385943	     -7.87314841	     15.59584459	     81.21345437	    119.74817918
      2.85000000	     -3.21496819	    -17.20992586	    -61.59425582	      1.52978586	      1.02927836	      5.46881188	     20.87041148	      1.84232490	      6.70836643	     20.81704919	     -5.34961197	      8.10470947	      0.00000000	     28.58621231	      0.79436726	      5.25241981	     30.32497325	    -10.16160584	    -13.08384954	      0.00000000	    -24.59259585	     11.42943741	     -3.93326367	     -3.54438430	     -8.02248996	     -4.21657585	     53.82650842	    116.35463731	     21.13032454	     -7.48680335	     16.41936768	     83.85505689	    119.74817918
      2.86666670	     -4.17996980	    -17.37689484	    -61.62632532	      1.53041473	      1.02976214	      5.47012091	     20.40036477	      2.52569627	      5.06338317	     19.49047312	     -7.18389321	      9.16213592	      0.00000000	     29.85724672	     -0.08708601	      4.79324337	     31.91117016	    -11.53203904	    -13.92243584	      0.00000000	    -24.63960961	     12.63464081	     -2.94052068	     -4.12243832	     -8.34236592	     -3.38156820	     53.96580735	    115.79829174	     21.36569790	     -7.61122102	     17.50574834	     86.38184138	    119.54535409
      2.88333330	     -5.04626921	    -17.34651299	    -61.30353119	      1.53219700	      1.03052024	      5.47175192	     19.67042398	      2.93697410	      3.96238838	     17.51139079	     -8.66690284	     10.29596260	      0.00000000	     31.08016721	     -0.60985041	      4.43846177	     33.12558364	    -13.22048750	    -15.27683732	      0.00000000	    -24.44640483	     13.93010861	     -2.47032209	     -4.87088432	     -8.66060052	     -2.58023319	     54.36238056	    114.76880529	     20.58940220	     -7.87676541	     18.46278934	     89.67099709	    119.17672273
      2.90000000	     -5.54858159	    -17.08768745	    -61.78714428	      1.53319088	      1.03168970	      5.47417228	     19.07434036	      3.26665590	      3.93723993	     15.69153044	     -9.73955875	     10.48138322	      0.00000000	     31.34241779	     -1.03124638	      3.32272867	     32.90610106	    -14.82696285	    -18.16184579	      0.00000000	    -24.36337762	     14.34698059	     -1.68950476	     -5.22064585	     -9.03433451	     -1.67897455	     54.48511852	    113.83177895	     18.92421620	     -8.17446562	     18.99961813	     92.93413122	    118.81773433
      2.91666670	     -6.16563692	    -16.81855366	    -61.71972426	      1.53293670	      1.03286809	      5.47802960	     18.72845278	      3.74739737	      3.31194568	     14.34828569	    -10.37222826	     10.56451777	      0.00000000	     31.31976892	     -1.76616243	      1.03189256	     32.01546175	    -15.10895685	    -19.95300014	      0.00000000	    -24.00388316	     14.81654031	     -1.10803072	     -5.54927680	     -8.45541766	     -1.57357661	     54.23386466	    113.65734482	     17.58674828	     -8.94943002	     19.35351773	     95.42205599	    118.80753619
      2.93333330	     -6.41941748	    -16.37546903	    -62.34915171	      1.53203193	      1.03370024	      5.48223460	     19.09054497	      4.07529127	      3.74322576	     14.31158623	    -10.63223725	     10.45679833	      0.00000000	     30.62762305	     -2.20444422	     -0.93625243	     30.13373300	    -16.50378397	    -22.90023280	      0.00000000	    -23.75940850	     14.54578874	     -0.56303365	     -5.36865425	     -7.78059308	     -0.78892920	     53.16091676	    112.69622696	     15.76361987	     -9.85274324	     18.19158000	     97.68122666	    118.35144914
      2.95000000	     -7.22005499	    -16.51462289	    -62.48246896	      1.53195081	      1.03391687	      5.48645756	     19.19100678	      4.94611157	      3.09376444	     14.43361113	    -10.59988063	     10.37667896	      0.00000000	     30.31274004	     -3.08634172	     -2.00696437	     29.29963278	    -16.60903309	    -23.94351350	      0.00000000	    -23.56830035	     15.05064608	     -0.30744531	     -5.72209770	     -6.80922626	     -1.28451126	     52.41084272	    112.44614683	     14.50838578	    -10.66779728	     17.55677235	     99.14398605	    118.28520049
      2.96666670	     -8.05332009	    -16.68450778	    -62.62812370	      1.53047225	      1.03348404	      5.49133864	     19.54841872	      5.98526226	      2.55385915	     15.04454360	    -10.23187574	     10.06314144	      0.00000000	     30.05433201	     -3.99220270	     -2.38481653	     28.57869248	    -16.95556601	    -25.08458963	      0.00000000	    -23.51665651	     15.50243885	      0.04064233	     -5.70292637	     -5.65977044	     -1.61269509	     51.76647508	    112.23761117	     13.35978731	    -11.28681943	     16.28412585	    100.29065233	    118.21840253
      2.98333330	     -8.84263832	    -16.80476887	    -62.36144323	      1.52953503	      1.03267754	      5.49594487	     20.12058223	      6.79079073	      1.72525343	     15.99822497	     -9.37251022	      9.71814589	      0.00000000	     29.99534148	     -4.86532509	     -3.18566347	     27.77798953	    -16.83641786	    -26.49448873	      0.00000000	    -23.31591179	     16.15402018	      0.11400861	     -6.06532672	     -4.71736719	     -2.22804876	     51.34699003	    112.09399999	     12.23437736	    -11.60697757	     14.24428194	    101.61118802	    118.17321880
      3.00000000	     -9.50909583	    -17.17672532	    -61.84118311	      1.52909260	      1.03148866	      5.50087886	     20.87102050	      7.31569467	     -0.35804305	     17.86216571	     -8.30682742	     10.59328020	      0.00000000	     30.29465082	     -5.18894514	     -1.76690891	     28.62022070	    -13.07764457	    -23.38257121	      0.00000000	    -23.11531939	     16.93551417	     -0.36227595	     -6.60884803	     -4.13442168	     -2.30481343	     50.66407652	    112.52892573	     11.16047914	    -12.14104109	     11.79794471	    102.69608739	    118.40943972
      3.01666670	     -9.61866488	    -17.44957735	    -61.24959640	      1.52848348	      1.03045078	      5.50466982	     21.48054727	      7.22434070	     -2.28996238	     19.75369322	     -7.01313755	     11.72229948	      0.00000000	     30.66419855	     -5.25649433	     -1.25980665	     30.00379543	     -5.99237994	    -17.30332831	      0.00000000	    -23.22489427	     17.22611581	     -0.62921522	     -7.09178151	     -3.60131609	     -2.73169588	     50.08837456	    113.62530447	     10.86124918	    -12.12614202	      9.59234417	    103.77349551	    118.87800537
      3.03333330	     -9.28867206	    -17.44932119	    -60.65530198	      1.52695223	      1.02933799	      5.50728117	     22.31541178	      6.76371635	     -3.38241996	     21.81200188	     -5.86614493	     11.89110353	      0.00000000	     30.59103960	     -5.25782678	     -2.63997409	     30.34704001	      0.09323225	    -13.47437716	      0.00000000	    -23.45344988	     17.01183743	     -1.18699074	     -6.75321694	     -3.13509047	     -2.96528818	     49.30590376	    115.24694429	     10.23145302	    -11.88735865	      7.24244507	    104.62269837	    119.47556113
      3.05000000	     -8.64363414	    -17.25271666	    -59.59519091	      1.52577719	      1.02868887	      5.50798180	     22.97041823	      5.87908295	     -3.81700802	     23.36390222	     -5.05649309	     11.63472320	      0.00000000	     30.55696546	     -4.10650605	     -1.66607250	     30.34442608	      4.33496330	    -12.73007240	      0.00000000	    -23.58095174	     16.56915483	     -2.16417190	     -6.00895100	     -2.73804430	     -3.25228569	     48.64291856	    116.18826023	      9.90194603	    -11.58648030	      4.75818560	    105.35733470	    119.74817918
